<svg width="48" height="48" viewBox="0 0 48 48" fill="none" xmlns="http://www.w3.org/2000/svg">
<rect width="48" height="48" rx="8" fill="#E8EDF5"/>
<path fill-rule="evenodd" clip-rule="evenodd" d="M34.0856 24.0787L27 20.5369V16.5C27 14.8431 25.6569 13.5 24 13.5C22.3431 13.5 21 14.8431 21 16.5V20.5369L13.9144 24.0787C13.6602 24.2059 13.4998 24.4658 13.5 24.75V27.75C13.5001 27.9746 13.6009 28.1874 13.7747 28.3298C13.9485 28.4721 14.1769 28.5291 14.3972 28.485L21 27.165V28.9397L19.7194 30.2194C19.5788 30.3601 19.4998 30.551 19.5 30.75V33.75C19.4996 33.9996 19.6234 34.2331 19.8302 34.3728C20.037 34.5125 20.2999 34.5402 20.5312 34.4466L24 33.0581L27.4688 34.4466C27.7001 34.5402 27.963 34.5125 28.1698 34.3728C28.3766 34.2331 28.5004 33.9996 28.5 33.75V30.75C28.5002 30.551 28.4212 30.3601 28.2806 30.2194L27 28.9397V27.165L33.6028 28.485C33.8231 28.5291 34.0515 28.4721 34.2253 28.3298C34.3991 28.1874 34.4999 27.9746 34.5 27.75V24.75C34.5002 24.4658 34.3398 24.2059 34.0856 24.0787ZM33 26.835L26.3972 25.515C26.1769 25.4709 25.9485 25.5279 25.7747 25.6702C25.6009 25.8126 25.5001 26.0254 25.5 26.25V29.25C25.4998 29.449 25.5788 29.6399 25.7194 29.7806L27 31.0603V32.6419L24.2812 31.5534C24.1025 31.482 23.9031 31.482 23.7244 31.5534L21 32.6419V31.0603L22.2806 29.7806C22.4212 29.6399 22.5002 29.449 22.5 29.25V26.25C22.4999 26.0254 22.3991 25.8126 22.2253 25.6702C22.0515 25.5279 21.8231 25.4709 21.6028 25.515L15 26.835V25.2131L22.0856 21.6713C22.3398 21.5441 22.5002 21.2842 22.5 21V16.5C22.5 15.6716 23.1716 15 24 15C24.8284 15 25.5 15.6716 25.5 16.5V21C25.4998 21.2842 25.6602 21.5441 25.9144 21.6713L33 25.2131V26.835Z" fill="#0D141C"/>
</svg>
