<svg width="13" height="24" viewBox="0 0 13 24" fill="none" xmlns="http://www.w3.org/2000/svg">
<path fill-rule="evenodd" clip-rule="evenodd" d="M12.7292 16.8851C12.9026 17.0582 13 17.2931 13 17.5381C13 17.7831 12.9026 18.018 12.7292 18.1912L7.19111 23.7293C7.01799 23.9026 6.78306 24 6.53808 24C6.2931 24 6.05817 23.9026 5.88504 23.7293L0.346913 18.1912C-0.0137496 17.8305 -0.0137496 17.2458 0.346913 16.8851C0.707576 16.5244 1.29232 16.5244 1.65299 16.8851L6.53808 21.7713L11.4232 16.8851C11.5963 16.7118 11.8312 16.6144 12.0762 16.6144C12.3212 16.6144 12.5561 16.7118 12.7292 16.8851ZM1.65299 7.11491L6.53808 2.22867L11.4232 7.11491C11.7838 7.47557 12.3686 7.47557 12.7292 7.11491C13.0899 6.75425 13.0899 6.1695 12.7292 5.80884L7.19111 0.27071C7.01799 0.0973875 6.78306 0 6.53808 0C6.2931 0 6.05817 0.0973875 5.88504 0.27071L0.346913 5.80884C-0.0137496 6.1695 -0.0137496 6.75425 0.346913 7.11491C0.707576 7.47557 1.29232 7.47557 1.65299 7.11491Z" fill="#4A739C"/>
</svg>
