<svg width="48" height="48" viewBox="0 0 48 48" fill="none" xmlns="http://www.w3.org/2000/svg">
<rect x="48" width="48" height="48" rx="8" transform="rotate(90 48 0)" fill="#E8EDF5"/>
<g clip-path="url(#clip0_135_1016)">
<path fill-rule="evenodd" clip-rule="evenodd" d="M23.9213 34.0856L27.4631 27H31.5C33.1569 27 34.5 25.6569 34.5 24C34.5 22.3431 33.1569 21 31.5 21H27.4631L23.9213 13.9144C23.7941 13.6602 23.5342 13.4998 23.25 13.5H20.25C20.0254 13.5001 19.8126 13.6009 19.6702 13.7747C19.5279 13.9485 19.4709 14.1769 19.515 14.3972L20.835 21H19.0603L17.7806 19.7194C17.6399 19.5788 17.449 19.4998 17.25 19.5H14.25C14.0004 19.4996 13.7669 19.6234 13.6272 19.8302C13.4875 20.037 13.4598 20.2999 13.5534 20.5312L14.9419 24L13.5534 27.4688C13.4598 27.7001 13.4875 27.963 13.6272 28.1698C13.7669 28.3766 14.0004 28.5004 14.25 28.5H17.25C17.449 28.5002 17.6399 28.4212 17.7806 28.2806L19.0603 27H20.835L19.515 33.6028C19.4709 33.8231 19.5279 34.0515 19.6702 34.2253C19.8126 34.3991 20.0254 34.4999 20.25 34.5H23.25C23.5342 34.5002 23.7941 34.3398 23.9213 34.0856ZM21.165 33L22.485 26.3972C22.5291 26.1769 22.4721 25.9485 22.3298 25.7747C22.1874 25.6009 21.9746 25.5001 21.75 25.5H18.75C18.551 25.4998 18.3601 25.5788 18.2194 25.7194L16.9397 27H15.3581L16.4466 24.2812C16.518 24.1025 16.518 23.9031 16.4466 23.7244L15.3581 21H16.9397L18.2194 22.2806C18.3601 22.4212 18.551 22.5002 18.75 22.5H21.75C21.9746 22.4999 22.1874 22.3991 22.3298 22.2253C22.4721 22.0515 22.5291 21.8231 22.485 21.6028L21.165 15H22.7869L26.3287 22.0856C26.4559 22.3398 26.7158 22.5002 27 22.5H31.5C32.3284 22.5 33 23.1716 33 24C33 24.8284 32.3284 25.5 31.5 25.5H27C26.7158 25.4998 26.4559 25.6602 26.3287 25.9144L22.7869 33H21.165Z" fill="#0D141C"/>
</g>
<defs>
<clipPath id="clip0_135_1016">
<rect width="24" height="24" fill="white" transform="matrix(0 1 -1 0 36 12)"/>
</clipPath>
</defs>
</svg>
